<?xml version="1.0" standalone="no"?>
<!DOCTYPE svg PUBLIC "-//W3C//DTD SVG 20010904//EN"
 "http://www.w3.org/TR/2001/REC-SVG-20010904/DTD/svg10.dtd">
<svg version="1.0" xmlns="http://www.w3.org/2000/svg"
 width="260.000000pt" height="260.000000pt" viewBox="0 0 260.000000 260.000000"
 preserveAspectRatio="xMidYMid meet">
<metadata>
Created by potrace 1.14, written by Peter Selinger 2001-2017
</metadata>
<g transform="translate(0.000000,260.000000) scale(0.100000,-0.100000)"
fill="#000000" stroke="none">
<path d="M825 2128 c-128 -17 -255 -110 -314 -230 -35 -72 -43 -109 -43 -193
1 -100 44 -203 117 -278 85 -88 187 -128 316 -123 75 3 96 8 161 39 157 76
249 235 235 406 -20 241 -231 410 -472 379z"/>
<path d="M1799 2129 c-103 -15 -192 -87 -228 -184 -53 -141 4 -291 139 -361
71 -38 179 -40 252 -7 125 57 195 200 162 331 -39 149 -177 243 -325 221z"/>
<path d="M1604 1285 c-138 -42 -247 -152 -288 -289 -77 -258 127 -528 398
-527 240 2 423 190 418 429 -4 175 -128 334 -301 386 -57 17 -172 17 -227 1z"/>
<path d="M642 1027 c-181 -85 -227 -324 -90 -466 106 -111 289 -119 400 -18
35 31 95 117 82 117 -4 0 -2 6 4 13 18 22 10 167 -13 212 -30 61 -102 127
-161 148 -67 23 -166 21 -222 -6z"/>
</g>
</svg>
